<?xml version="1.0" encoding="utf-8"?>
<!-- Generator: Adobe Illustrator 19.2.1, SVG Export Plug-In . SVG Version: 6.00 Build 0)  -->
<svg version="1.1" xmlns="http://www.w3.org/2000/svg" xmlns:xlink="http://www.w3.org/1999/xlink" x="0px" y="0px"
	 viewBox="0 0 67.3 77.3" style="enable-background:new 0 0 67.3 77.3;" xml:space="preserve">
<style type="text/css">
	.st0{fill:#FFFFFF;}
	.st1{fill:#06F4F4;}
	.st2{fill:#673AB7;}
</style>
<g id="BACKGROUND">
	<rect id="XMLID_1_" x="-52.3" y="-72.7" class="st0" width="800" height="800"/>
</g>
<g id="OBJECTS">
	<g id="XMLID_586_">
		<g id="XMLID_535_">
			<g id="XMLID_522_">
				<g>
					<path class="st1" d="M42.4,35.1c0,0,0.1,0.1,0.1,0.1l-25.2,19c0,0-0.1-0.1-0.1-0.1c-2.4-3.2-6.9-3.8-10-1.4
						c-3.2,2.4-3.8,6.9-1.4,10c1.7,2.3,4.6,3.3,7.3,2.7c-1.3,2.4-1.2,5.4,0.6,7.7c2.4,3.2,6.9,3.8,10,1.4c3.2-2.4,3.8-6.9,1.4-10
						c0,0-0.1-0.1-0.1-0.1l25.2-19c0,0,0.1,0.1,0.1,0.1c2.4,3.2,6.9,3.8,10,1.4c3.2-2.4,3.8-6.9,1.4-10c-1.7-2.3-4.6-3.3-7.3-2.7
						c1.3-2.4,1.2-5.4-0.6-7.7c-2.4-3.2-6.9-3.8-10-1.4S40,31.9,42.4,35.1z"/>
				</g>
			</g>
		</g>
	</g>
	<path class="st2" d="M23.2,36.2v6.5H33v-6.5c0-0.9,0.2-1.6,0.6-2.1c0.4-0.5,1-0.7,1.6-0.7c0.7,0,1.2,0.2,1.7,0.7
		c0.4,0.5,0.6,1.2,0.6,2.1V54c0,0.9-0.2,1.6-0.6,2.1c-0.4,0.5-1,0.7-1.7,0.7c-0.7,0-1.2-0.2-1.6-0.7C33.2,55.6,33,54.9,33,54v-7.6
		h-9.9V54c0,0.9-0.2,1.6-0.6,2.1c-0.4,0.5-1,0.7-1.7,0.7c-0.7,0-1.2-0.2-1.6-0.7c-0.4-0.5-0.6-1.2-0.6-2.1V36.2
		c0-0.9,0.2-1.6,0.6-2.1c0.4-0.5,1-0.7,1.7-0.7c0.7,0,1.2,0.2,1.7,0.7C22.9,34.5,23.2,35.2,23.2,36.2z"/>
	<g id="XMLID_2_">
		<g id="XMLID_3_">
			<path class="st2" d="M23.6,30.3h-8.2v12.4c0,1.8-0.4,3.1-1.3,4s-1.9,1.4-3.2,1.4c-1.3,0-2.4-0.5-3.2-1.4c-0.8-0.9-1.2-2.2-1.2-4
				V8.9c0-2,0.4-3.4,1.3-4.2s2.3-1.3,4.3-1.3h11.4c3.4,0,6,0.3,7.8,0.8c1.8,0.5,3.4,1.3,4.7,2.5c1.3,1.2,2.3,2.6,3,4.3
				c0.7,1.7,1,3.6,1,5.7c0,4.5-1.4,7.9-4.1,10.2C33.2,29.2,29.1,30.3,23.6,30.3z M21.4,10.2h-6v13.4h6c2.1,0,3.9-0.2,5.3-0.7
				c1.4-0.4,2.5-1.2,3.2-2.2c0.7-1,1.1-2.3,1.1-3.9c0-1.9-0.6-3.5-1.7-4.7C28.1,10.8,25.4,10.2,21.4,10.2z"/>
		</g>
	</g>
</g>
<g id="DESIGNED_BY_FREEPIK">
</g>
</svg>
